<?xml version="1.0" standalone="no"?>
<!DOCTYPE svg PUBLIC "-//W3C//DTD SVG 20010904//EN"
 "http://www.w3.org/TR/2001/REC-SVG-20010904/DTD/svg10.dtd">
<svg version="1.0" xmlns="http://www.w3.org/2000/svg"
 width="300.000000pt" height="300.000000pt" viewBox="0 0 300.000000 300.000000"
 preserveAspectRatio="xMidYMid meet">
<metadata>
Created by potrace 1.14, written by Peter Selinger 2001-2017
</metadata>
<g transform="translate(0.000000,300.000000) scale(0.100000,-0.100000)"
fill="#000000" stroke="none">
<path d="M615 2351 c-101 -5 -129 -10 -177 -33 -146 -68 -210 -208 -188 -410
18 -158 84 -286 195 -380 82 -69 245 -152 330 -167 74 -14 189 -1 265 29 201
79 348 282 367 506 7 90 30 124 83 124 54 0 76 -33 83 -126 14 -183 116 -355
271 -456 84 -54 171 -79 281 -80 78 -1 100 3 168 29 209 83 346 212 408 386
31 87 39 317 14 383 -25 66 -85 135 -141 164 -45 22 -66 25 -244 33 -107 4
-270 7 -361 5 -165 -4 -168 -5 -233 -37 -42 -20 -78 -48 -101 -76 -42 -51 -76
-65 -156 -65 -77 0 -101 11 -170 74 -95 88 -135 99 -374 101 -110 2 -254 0
-320 -4z m505 -203 c19 -10 48 -38 65 -60 23 -34 29 -52 30 -96 0 -47 -4 -57
-28 -78 -21 -18 -40 -24 -73 -24 -53 0 -87 16 -131 62 -38 39 -53 76 -53 126
0 91 91 125 190 70z m1283 21 c40 -11 100 -58 119 -93 34 -63 26 -142 -17
-170 -93 -61 -252 48 -249 171 1 48 16 70 59 89 37 16 41 16 88 3z"/>
<path d="M1015 1245 c-44 -43 -29 -96 45 -163 71 -65 178 -104 333 -124 142
-18 307 6 435 63 57 26 149 113 157 149 7 32 -15 84 -40 94 -44 17 -81 6 -120
-35 -104 -106 -303 -147 -491 -99 -85 22 -139 53 -186 106 -39 44 -95 48 -133
9z"/>
</g>
</svg>
